# xmcd
#
# Track frame offsets: 
#        150
#        12907
#        27648
#        42013
#        57990
#        75537
#        92816
#        105293
#        124982
#        140689
#        154469
#        171223
#        184661
#        198737
#        217928
#        241597
#        260239
#
# Disc length: 3622 seconds
#
# Revision: 1
# Processed by: cddbd v1.5.2PL0 Copyright (c) Steve Scherf et al.
# Submitted via: ExactAudioCopyFreeDBPlugin 1.0
#
DISCID=ed0e2411
DTITLE=Psychosomatic Cowboys - Intoxication
DYEAR=2010
DGENRE=Country
TTITLE0=White Collar Greed
TTITLE1=Cheatin'
TTITLE2=Long Gone
TTITLE3=Give It All To Me
TTITLE4=Broke Out'a Fear
TTITLE5=Intoxication
TTITLE6=She's Gorgeous
TTITLE7=In and Out Of Pain
TTITLE8=Hair Of The Dog
TTITLE9=Lonesome Love
TTITLE10=Cowboy Rock 'N' Roller
TTITLE11=Stoned
TTITLE12=Train No. Ten
TTITLE13=Road To Ruin
TTITLE14=She's Too Good
TTITLE15=Hammer Goin' Down
TTITLE16=Hate To Love
EXTD=
EXTT0=
EXTT1=
EXTT2=
EXTT3=
EXTT4=
EXTT5=
EXTT6=
EXTT7=
EXTT8=
EXTT9=
EXTT10=
EXTT11=
EXTT12=
EXTT13=
EXTT14=
EXTT15=
EXTT16=
PLAYORDER=
